<?xml version="1.0" ?><svg enable-background="new 0 0 512 512" id="Layer_1" version="1.1" viewBox="0 0 512 512" xml:space="preserve" xmlns="http://www.w3.org/2000/svg" xmlns:xlink="http://www.w3.org/1999/xlink"><g><g><linearGradient gradientUnits="userSpaceOnUse" id="SVGID_1_" x1="0.0000083" x2="512" y1="256" y2="256"><stop offset="0" style="stop-color:#F35CB5"/><stop offset="1" style="stop-color:#EC008C"/></linearGradient><circle cx="256" cy="256" fill="url(#SVGID_1_)" r="256"/><linearGradient gradientUnits="userSpaceOnUse" id="SVGID_2_" x1="42.6666756" x2="469.333313" y1="256.0005188" y2="256.0005188"><stop offset="0" style="stop-color:#EC008C"/><stop offset="1" style="stop-color:#F35CB5"/></linearGradient><path d="M256,469.3338623c-117.6309204,0-213.3333282-95.7018738-213.3333282-213.3333435    S138.3690796,42.6671982,256,42.6671982c117.636261,0,213.333313,95.7018661,213.333313,213.333313    S373.636261,469.3338623,256,469.3338623z" fill="url(#SVGID_2_)"/></g><g><g><circle cx="174.8916016" cy="174.8912048" opacity="0.3" r="30.8913307"/><circle cx="264.0002747" cy="174.8912048" opacity="0.3" r="30.8911991"/><circle cx="353.1090698" cy="174.8912048" opacity="0.3" r="30.8911991"/></g><g><circle cx="174.8916016" cy="263.9998779" opacity="0.3" r="30.8914642"/><circle cx="264.0002747" cy="263.9998779" opacity="0.3" r="30.8913326"/><circle cx="353.1090698" cy="263.9998779" opacity="0.3" r="30.8913326"/></g><g><circle cx="174.8916016" cy="353.1083984" opacity="0.3" r="30.8914642"/><circle cx="264.0002747" cy="353.1083984" opacity="0.3" r="30.8913326"/><circle cx="353.1090698" cy="353.1083984" opacity="0.3" r="30.8913326"/></g></g><g><g><circle cx="166.8916016" cy="166.8912048" fill="#FFFFFF" r="30.8913307"/><circle cx="256.0002747" cy="166.8912048" fill="#FFFFFF" r="30.8911991"/><circle cx="345.1090698" cy="166.8912048" fill="#FFFFFF" r="30.8911991"/></g><g><circle cx="166.8916016" cy="255.9998627" fill="#FFFFFF" r="30.8914642"/><circle cx="256.0002747" cy="255.9998627" fill="#FFFFFF" r="30.8913326"/><circle cx="345.1090698" cy="255.9998627" fill="#FFFFFF" r="30.8913326"/></g><g><circle cx="166.8916016" cy="345.1083984" fill="#FFFFFF" r="30.8914642"/><circle cx="256.0002747" cy="345.1083984" fill="#FFFFFF" r="30.8913326"/><circle cx="345.1090698" cy="345.1083984" fill="#FFFFFF" r="30.8913326"/></g></g></g></svg>